<mxfile host="app.diagrams.net" modified="2024-05-12T16:28:53.004Z" agent="Mozilla/5.0 (Windows NT 10.0; Win64; x64) AppleWebKit/537.36 (KHTML, like Gecko) Chrome/124.0.0.0 Safari/537.36" etag="oOUpYdiM6VtTFSoQmcxE" version="24.4.0" type="github">
  <diagram name="Page-1" id="c4acf3e9-155e-7222-9cf6-157b1a14988f">
    <mxGraphModel dx="3718" dy="2766" grid="1" gridSize="10" guides="1" tooltips="1" connect="1" arrows="1" fold="1" page="1" pageScale="1" pageWidth="850" pageHeight="1100" background="none" math="0" shadow="0">
      <root>
        <mxCell id="0" />
        <mxCell id="1" style="" parent="0" />
        <mxCell id="-j50Evu2EAbfJvNb1Vek-1" value="&lt;font style=&quot;font-size: 80px;&quot;&gt;H-54&lt;/font&gt;" style="shape=umlFrame;whiteSpace=wrap;html=1;rounded=0;shadow=0;comic=0;labelBackgroundColor=none;strokeWidth=1;fontFamily=Verdana;fontSize=10;align=center;width=370;height=160;movable=0;resizable=0;rotatable=0;deletable=0;editable=0;locked=1;connectable=0;" vertex="1" parent="1">
          <mxGeometry x="-850" y="-1100" width="8510" height="5500" as="geometry" />
        </mxCell>
        <mxCell id="q5akOOhBp9ArECJoNlle-2" value="&lt;font style=&quot;font-size: 30px;&quot;&gt;HEAD&lt;/font&gt;" style="shape=umlFrame;whiteSpace=wrap;html=1;pointerEvents=0;width=230;height=70;" vertex="1" parent="1">
          <mxGeometry x="850" y="-1020" width="4530" height="1510" as="geometry" />
        </mxCell>
        <mxCell id="q5akOOhBp9ArECJoNlle-9" value="&lt;font style=&quot;font-size: 30px;&quot;&gt;«component»&lt;/font&gt;&lt;div style=&quot;font-size: 30px;&quot;&gt;&lt;font style=&quot;font-size: 30px;&quot;&gt;&lt;br&gt;Microphone&lt;/font&gt;&lt;/div&gt;" style="html=1;dropTarget=0;whiteSpace=wrap;" vertex="1" parent="1">
          <mxGeometry x="1140" y="-972.5" width="330" height="132.5" as="geometry" />
        </mxCell>
        <mxCell id="q5akOOhBp9ArECJoNlle-10" value="" style="shape=module;jettyWidth=8;jettyHeight=4;" vertex="1" parent="q5akOOhBp9ArECJoNlle-9">
          <mxGeometry x="1" width="20" height="20" relative="1" as="geometry">
            <mxPoint x="-27" y="7" as="offset" />
          </mxGeometry>
        </mxCell>
        <mxCell id="q5akOOhBp9ArECJoNlle-14" value="&lt;font style=&quot;font-size: 30px;&quot;&gt;LEFT ARM&lt;/font&gt;" style="shape=umlFrame;whiteSpace=wrap;html=1;pointerEvents=0;width=260;height=80;" vertex="1" parent="1">
          <mxGeometry x="-760" y="810" width="2060" height="1760" as="geometry" />
        </mxCell>
        <mxCell id="q5akOOhBp9ArECJoNlle-15" value="&lt;font style=&quot;font-size: 30px;&quot;&gt;BODY&lt;/font&gt;" style="shape=umlFrame;whiteSpace=wrap;html=1;pointerEvents=0;width=270;height=90;" vertex="1" parent="1">
          <mxGeometry x="1505" y="580" width="3270" height="2230" as="geometry" />
        </mxCell>
        <mxCell id="q5akOOhBp9ArECJoNlle-17" value="&lt;font style=&quot;font-size: 30px;&quot;&gt;LEFT LEG&lt;/font&gt;" style="shape=umlFrame;whiteSpace=wrap;html=1;pointerEvents=0;width=240;height=70;" vertex="1" parent="1">
          <mxGeometry x="-700" y="2930" width="2880" height="1210" as="geometry" />
        </mxCell>
        <mxCell id="q5akOOhBp9ArECJoNlle-18" value="&lt;font style=&quot;font-size: 30px;&quot;&gt;RIGHT ARM&lt;/font&gt;" style="shape=umlFrame;whiteSpace=wrap;html=1;pointerEvents=0;width=260;height=80;" vertex="1" parent="1">
          <mxGeometry x="5130" y="810" width="2330" height="1750" as="geometry" />
        </mxCell>
        <mxCell id="q5akOOhBp9ArECJoNlle-19" value="&lt;font style=&quot;font-size: 30px;&quot;&gt;«component»&lt;/font&gt;&lt;div style=&quot;font-size: 30px;&quot;&gt;&lt;font style=&quot;font-size: 30px;&quot;&gt;&lt;br&gt;Right Camera&lt;/font&gt;&lt;/div&gt;" style="html=1;dropTarget=0;whiteSpace=wrap;" vertex="1" parent="1">
          <mxGeometry x="2510" y="-972.5" width="330" height="132.5" as="geometry" />
        </mxCell>
        <mxCell id="q5akOOhBp9ArECJoNlle-20" value="" style="shape=module;jettyWidth=8;jettyHeight=4;" vertex="1" parent="q5akOOhBp9ArECJoNlle-19">
          <mxGeometry x="1" width="20" height="20" relative="1" as="geometry">
            <mxPoint x="-27" y="7" as="offset" />
          </mxGeometry>
        </mxCell>
        <mxCell id="q5akOOhBp9ArECJoNlle-21" value="&lt;font style=&quot;font-size: 30px;&quot;&gt;«component»&lt;/font&gt;&lt;div style=&quot;font-size: 30px;&quot;&gt;&lt;font style=&quot;font-size: 30px;&quot;&gt;&lt;br&gt;Left Camera&lt;/font&gt;&lt;/div&gt;" style="html=1;dropTarget=0;whiteSpace=wrap;" vertex="1" parent="1">
          <mxGeometry x="2130" y="-972.5" width="330" height="132.5" as="geometry" />
        </mxCell>
        <mxCell id="q5akOOhBp9ArECJoNlle-22" value="" style="shape=module;jettyWidth=8;jettyHeight=4;" vertex="1" parent="q5akOOhBp9ArECJoNlle-21">
          <mxGeometry x="1" width="20" height="20" relative="1" as="geometry">
            <mxPoint x="-27" y="7" as="offset" />
          </mxGeometry>
        </mxCell>
        <mxCell id="q5akOOhBp9ArECJoNlle-24" value="&lt;font style=&quot;font-size: 30px;&quot;&gt;RIGHT&amp;nbsp;&lt;/font&gt;&lt;span style=&quot;font-size: 30px; background-color: initial;&quot;&gt;LEG&lt;/span&gt;" style="shape=umlFrame;whiteSpace=wrap;html=1;pointerEvents=0;width=240;height=70;" vertex="1" parent="1">
          <mxGeometry x="4560" y="2920" width="2890" height="1330" as="geometry" />
        </mxCell>
        <mxCell id="q5akOOhBp9ArECJoNlle-25" value="&lt;font style=&quot;font-size: 30px;&quot;&gt;«component»&lt;/font&gt;&lt;div style=&quot;font-size: 30px;&quot;&gt;&lt;font style=&quot;font-size: 30px;&quot;&gt;&lt;br&gt;Tactile Sensors&lt;/font&gt;&lt;/div&gt;" style="html=1;dropTarget=0;whiteSpace=wrap;" vertex="1" parent="1">
          <mxGeometry x="-740" y="940" width="330" height="132.5" as="geometry" />
        </mxCell>
        <mxCell id="q5akOOhBp9ArECJoNlle-26" value="" style="shape=module;jettyWidth=8;jettyHeight=4;" vertex="1" parent="q5akOOhBp9ArECJoNlle-25">
          <mxGeometry x="1" width="20" height="20" relative="1" as="geometry">
            <mxPoint x="-27" y="7" as="offset" />
          </mxGeometry>
        </mxCell>
        <mxCell id="q5akOOhBp9ArECJoNlle-27" value="&lt;font style=&quot;font-size: 30px;&quot;&gt;«component»&lt;/font&gt;&lt;div style=&quot;font-size: 30px;&quot;&gt;&lt;font style=&quot;font-size: 30px;&quot;&gt;&lt;br&gt;Tactile Sensors&lt;/font&gt;&lt;/div&gt;" style="html=1;dropTarget=0;whiteSpace=wrap;" vertex="1" parent="1">
          <mxGeometry x="7060" y="990" width="330" height="132.5" as="geometry" />
        </mxCell>
        <mxCell id="q5akOOhBp9ArECJoNlle-28" value="" style="shape=module;jettyWidth=8;jettyHeight=4;" vertex="1" parent="q5akOOhBp9ArECJoNlle-27">
          <mxGeometry x="1" width="20" height="20" relative="1" as="geometry">
            <mxPoint x="-27" y="7" as="offset" />
          </mxGeometry>
        </mxCell>
        <mxCell id="q5akOOhBp9ArECJoNlle-29" value="&lt;font style=&quot;font-size: 30px;&quot;&gt;«component»&lt;/font&gt;&lt;div style=&quot;font-size: 30px;&quot;&gt;&lt;font style=&quot;font-size: 30px;&quot;&gt;&lt;br&gt;Proprioception Sensors&lt;/font&gt;&lt;/div&gt;" style="html=1;dropTarget=0;whiteSpace=wrap;" vertex="1" parent="1">
          <mxGeometry x="-740" y="1110" width="330" height="132.5" as="geometry" />
        </mxCell>
        <mxCell id="q5akOOhBp9ArECJoNlle-30" value="" style="shape=module;jettyWidth=8;jettyHeight=4;" vertex="1" parent="q5akOOhBp9ArECJoNlle-29">
          <mxGeometry x="1" width="20" height="20" relative="1" as="geometry">
            <mxPoint x="-27" y="7" as="offset" />
          </mxGeometry>
        </mxCell>
        <mxCell id="q5akOOhBp9ArECJoNlle-31" value="&lt;font style=&quot;font-size: 30px;&quot;&gt;«component»&lt;/font&gt;&lt;div style=&quot;font-size: 30px;&quot;&gt;&lt;font style=&quot;font-size: 30px;&quot;&gt;&lt;br&gt;Proprioception Sensors&lt;/font&gt;&lt;/div&gt;" style="html=1;dropTarget=0;whiteSpace=wrap;" vertex="1" parent="1">
          <mxGeometry x="6210" y="3920" width="330" height="132.5" as="geometry" />
        </mxCell>
        <mxCell id="q5akOOhBp9ArECJoNlle-32" value="" style="shape=module;jettyWidth=8;jettyHeight=4;" vertex="1" parent="q5akOOhBp9ArECJoNlle-31">
          <mxGeometry x="1" width="20" height="20" relative="1" as="geometry">
            <mxPoint x="-27" y="7" as="offset" />
          </mxGeometry>
        </mxCell>
        <mxCell id="q5akOOhBp9ArECJoNlle-33" value="&lt;font style=&quot;font-size: 30px;&quot;&gt;«component»&lt;/font&gt;&lt;div style=&quot;font-size: 30px;&quot;&gt;&lt;font style=&quot;font-size: 30px;&quot;&gt;&lt;br&gt;Proprioception Sensors&lt;/font&gt;&lt;/div&gt;" style="html=1;dropTarget=0;whiteSpace=wrap;" vertex="1" parent="1">
          <mxGeometry x="-590" y="3950" width="330" height="132.5" as="geometry" />
        </mxCell>
        <mxCell id="q5akOOhBp9ArECJoNlle-34" value="" style="shape=module;jettyWidth=8;jettyHeight=4;" vertex="1" parent="q5akOOhBp9ArECJoNlle-33">
          <mxGeometry x="1" width="20" height="20" relative="1" as="geometry">
            <mxPoint x="-27" y="7" as="offset" />
          </mxGeometry>
        </mxCell>
        <mxCell id="q5akOOhBp9ArECJoNlle-35" value="&lt;font style=&quot;font-size: 30px;&quot;&gt;«component»&lt;/font&gt;&lt;div style=&quot;font-size: 30px;&quot;&gt;&lt;font style=&quot;font-size: 30px;&quot;&gt;&lt;br&gt;Proprioception Sensors&lt;/font&gt;&lt;/div&gt;" style="html=1;dropTarget=0;whiteSpace=wrap;" vertex="1" parent="1">
          <mxGeometry x="7070" y="1200" width="330" height="132.5" as="geometry" />
        </mxCell>
        <mxCell id="q5akOOhBp9ArECJoNlle-36" value="" style="shape=module;jettyWidth=8;jettyHeight=4;" vertex="1" parent="q5akOOhBp9ArECJoNlle-35">
          <mxGeometry x="1" width="20" height="20" relative="1" as="geometry">
            <mxPoint x="-27" y="7" as="offset" />
          </mxGeometry>
        </mxCell>
        <mxCell id="q5akOOhBp9ArECJoNlle-37" value="&lt;font style=&quot;font-size: 30px;&quot;&gt;«component»&lt;/font&gt;&lt;div style=&quot;font-size: 30px;&quot;&gt;&lt;font style=&quot;font-size: 30px;&quot;&gt;&lt;br&gt;Speaker&lt;/font&gt;&lt;/div&gt;" style="html=1;dropTarget=0;whiteSpace=wrap;" vertex="1" parent="1">
          <mxGeometry x="1520" y="-972.5" width="330" height="132.5" as="geometry" />
        </mxCell>
        <mxCell id="q5akOOhBp9ArECJoNlle-38" value="" style="shape=module;jettyWidth=8;jettyHeight=4;" vertex="1" parent="q5akOOhBp9ArECJoNlle-37">
          <mxGeometry x="1" width="20" height="20" relative="1" as="geometry">
            <mxPoint x="-27" y="7" as="offset" />
          </mxGeometry>
        </mxCell>
        <mxCell id="q5akOOhBp9ArECJoNlle-39" value="&lt;font style=&quot;font-size: 30px;&quot;&gt;«component»&lt;/font&gt;&lt;div style=&quot;font-size: 30px;&quot;&gt;&lt;font style=&quot;font-size: 30px;&quot;&gt;&lt;br&gt;Comunication Module&lt;/font&gt;&lt;/div&gt;" style="html=1;dropTarget=0;whiteSpace=wrap;" vertex="1" parent="1">
          <mxGeometry x="2160" y="-110" width="330" height="132.5" as="geometry" />
        </mxCell>
        <mxCell id="q5akOOhBp9ArECJoNlle-40" value="" style="shape=module;jettyWidth=8;jettyHeight=4;" vertex="1" parent="q5akOOhBp9ArECJoNlle-39">
          <mxGeometry x="1" width="20" height="20" relative="1" as="geometry">
            <mxPoint x="-27" y="7" as="offset" />
          </mxGeometry>
        </mxCell>
        <mxCell id="q5akOOhBp9ArECJoNlle-41" value="&lt;font style=&quot;font-size: 30px;&quot;&gt;«component»&lt;/font&gt;&lt;div style=&quot;font-size: 30px;&quot;&gt;&lt;font style=&quot;font-size: 30px;&quot;&gt;&lt;br&gt;Comunication Module&lt;/font&gt;&lt;/div&gt;" style="html=1;dropTarget=0;whiteSpace=wrap;" vertex="1" parent="1">
          <mxGeometry x="1330" y="-500" width="330" height="132.5" as="geometry" />
        </mxCell>
        <mxCell id="q5akOOhBp9ArECJoNlle-42" value="" style="shape=module;jettyWidth=8;jettyHeight=4;" vertex="1" parent="q5akOOhBp9ArECJoNlle-41">
          <mxGeometry x="1" width="20" height="20" relative="1" as="geometry">
            <mxPoint x="-27" y="7" as="offset" />
          </mxGeometry>
        </mxCell>
        <mxCell id="q5akOOhBp9ArECJoNlle-43" value="&lt;font style=&quot;font-size: 30px;&quot;&gt;«component»&lt;/font&gt;&lt;div style=&quot;font-size: 30px;&quot;&gt;&lt;font style=&quot;font-size: 30px;&quot;&gt;&lt;br&gt;Vision Module&lt;/font&gt;&lt;/div&gt;" style="html=1;dropTarget=0;whiteSpace=wrap;" vertex="1" parent="1">
          <mxGeometry x="2350" y="-500" width="330" height="132.5" as="geometry" />
        </mxCell>
        <mxCell id="q5akOOhBp9ArECJoNlle-44" value="" style="shape=module;jettyWidth=8;jettyHeight=4;" vertex="1" parent="q5akOOhBp9ArECJoNlle-43">
          <mxGeometry x="1" width="20" height="20" relative="1" as="geometry">
            <mxPoint x="-27" y="7" as="offset" />
          </mxGeometry>
        </mxCell>
        <mxCell id="q5akOOhBp9ArECJoNlle-52" value="&lt;font style=&quot;font-size: 30px;&quot;&gt;«adapter»&lt;/font&gt;&lt;div style=&quot;font-size: 30px;&quot;&gt;&lt;br&gt;&lt;/div&gt;&lt;div style=&quot;font-size: 30px;&quot;&gt;&lt;font style=&quot;font-size: 30px;&quot;&gt;Speech to Text&lt;/font&gt;&lt;/div&gt;" style="html=1;dropTarget=0;whiteSpace=wrap;" vertex="1" parent="1">
          <mxGeometry x="1145" y="-720" width="320" height="120" as="geometry" />
        </mxCell>
        <mxCell id="q5akOOhBp9ArECJoNlle-53" value="" style="shape=module;jettyWidth=8;jettyHeight=4;" vertex="1" parent="q5akOOhBp9ArECJoNlle-52">
          <mxGeometry x="1" width="20" height="20" relative="1" as="geometry">
            <mxPoint x="-27" y="7" as="offset" />
          </mxGeometry>
        </mxCell>
        <mxCell id="q5akOOhBp9ArECJoNlle-54" value="&lt;font style=&quot;font-size: 30px;&quot;&gt;«adapter»&lt;/font&gt;&lt;div style=&quot;font-size: 30px;&quot;&gt;&lt;br&gt;&lt;/div&gt;&lt;div style=&quot;font-size: 30px;&quot;&gt;&lt;font style=&quot;font-size: 30px;&quot;&gt;Text to Speech&lt;/font&gt;&lt;/div&gt;" style="html=1;dropTarget=0;whiteSpace=wrap;" vertex="1" parent="1">
          <mxGeometry x="1532.5" y="-720" width="305" height="120" as="geometry" />
        </mxCell>
        <mxCell id="q5akOOhBp9ArECJoNlle-55" value="" style="shape=module;jettyWidth=8;jettyHeight=4;" vertex="1" parent="q5akOOhBp9ArECJoNlle-54">
          <mxGeometry x="1" width="20" height="20" relative="1" as="geometry">
            <mxPoint x="-27" y="7" as="offset" />
          </mxGeometry>
        </mxCell>
        <mxCell id="q5akOOhBp9ArECJoNlle-62" value="" style="ellipse;whiteSpace=wrap;html=1;align=center;aspect=fixed;fillColor=none;strokeColor=none;resizable=0;perimeter=centerPerimeter;rotatable=0;allowArrows=0;points=[];outlineConnect=1;" vertex="1" parent="1">
          <mxGeometry x="1440" y="-780" width="10" height="10" as="geometry" />
        </mxCell>
        <mxCell id="q5akOOhBp9ArECJoNlle-93" style="edgeStyle=orthogonalEdgeStyle;rounded=0;orthogonalLoop=1;jettySize=auto;html=1;entryX=0.5;entryY=1;entryDx=0;entryDy=0;endArrow=none;endFill=0;" edge="1" parent="1" source="q5akOOhBp9ArECJoNlle-67" target="q5akOOhBp9ArECJoNlle-37">
          <mxGeometry relative="1" as="geometry" />
        </mxCell>
        <mxCell id="q5akOOhBp9ArECJoNlle-94" style="edgeStyle=orthogonalEdgeStyle;rounded=0;orthogonalLoop=1;jettySize=auto;html=1;endArrow=none;endFill=0;" edge="1" parent="1" source="q5akOOhBp9ArECJoNlle-67">
          <mxGeometry relative="1" as="geometry">
            <mxPoint x="1685" y="-720.0000000000001" as="targetPoint" />
          </mxGeometry>
        </mxCell>
        <mxCell id="q5akOOhBp9ArECJoNlle-67" value="" style="shape=providedRequiredInterface;html=1;verticalLabelPosition=bottom;sketch=0;rotation=-90;" vertex="1" parent="1">
          <mxGeometry x="1675" y="-795" width="20" height="20" as="geometry" />
        </mxCell>
        <mxCell id="q5akOOhBp9ArECJoNlle-75" style="edgeStyle=orthogonalEdgeStyle;rounded=0;orthogonalLoop=1;jettySize=auto;html=1;exitX=1;exitY=0.5;exitDx=0;exitDy=0;exitPerimeter=0;entryX=0.5;entryY=0;entryDx=0;entryDy=0;endArrow=none;endFill=0;" edge="1" parent="1" source="q5akOOhBp9ArECJoNlle-74" target="q5akOOhBp9ArECJoNlle-52">
          <mxGeometry relative="1" as="geometry" />
        </mxCell>
        <mxCell id="q5akOOhBp9ArECJoNlle-76" value="" style="edgeStyle=orthogonalEdgeStyle;rounded=0;orthogonalLoop=1;jettySize=auto;html=1;endArrow=none;endFill=0;" edge="1" parent="1" source="q5akOOhBp9ArECJoNlle-74" target="q5akOOhBp9ArECJoNlle-9">
          <mxGeometry relative="1" as="geometry" />
        </mxCell>
        <mxCell id="q5akOOhBp9ArECJoNlle-74" value="" style="shape=providedRequiredInterface;html=1;verticalLabelPosition=bottom;sketch=0;rotation=90;" vertex="1" parent="1">
          <mxGeometry x="1295" y="-795" width="20" height="20" as="geometry" />
        </mxCell>
        <mxCell id="q5akOOhBp9ArECJoNlle-89" style="edgeStyle=orthogonalEdgeStyle;rounded=0;orthogonalLoop=1;jettySize=auto;html=1;endArrow=none;endFill=0;" edge="1" parent="1" source="q5akOOhBp9ArECJoNlle-81">
          <mxGeometry relative="1" as="geometry">
            <mxPoint x="1400" y="-600" as="targetPoint" />
          </mxGeometry>
        </mxCell>
        <mxCell id="q5akOOhBp9ArECJoNlle-92" style="edgeStyle=orthogonalEdgeStyle;rounded=0;orthogonalLoop=1;jettySize=auto;html=1;endArrow=none;endFill=0;" edge="1" parent="1" source="q5akOOhBp9ArECJoNlle-81">
          <mxGeometry relative="1" as="geometry">
            <mxPoint x="1400" y="-500" as="targetPoint" />
          </mxGeometry>
        </mxCell>
        <mxCell id="q5akOOhBp9ArECJoNlle-81" value="" style="shape=providedRequiredInterface;html=1;verticalLabelPosition=bottom;sketch=0;rotation=90;" vertex="1" parent="1">
          <mxGeometry x="1390" y="-560" width="20" height="20" as="geometry" />
        </mxCell>
        <mxCell id="q5akOOhBp9ArECJoNlle-91" style="edgeStyle=orthogonalEdgeStyle;rounded=0;orthogonalLoop=1;jettySize=auto;html=1;endArrow=none;endFill=0;" edge="1" parent="1" source="q5akOOhBp9ArECJoNlle-87">
          <mxGeometry relative="1" as="geometry">
            <mxPoint x="1600" y="-500" as="targetPoint" />
          </mxGeometry>
        </mxCell>
        <mxCell id="q5akOOhBp9ArECJoNlle-87" value="" style="shape=providedRequiredInterface;html=1;verticalLabelPosition=bottom;sketch=0;rotation=-90;" vertex="1" parent="1">
          <mxGeometry x="1590" y="-560" width="20" height="20" as="geometry" />
        </mxCell>
        <mxCell id="q5akOOhBp9ArECJoNlle-90" style="edgeStyle=orthogonalEdgeStyle;rounded=0;orthogonalLoop=1;jettySize=auto;html=1;entryX=0.224;entryY=0.999;entryDx=0;entryDy=0;entryPerimeter=0;endArrow=none;endFill=0;" edge="1" parent="1" source="q5akOOhBp9ArECJoNlle-87" target="q5akOOhBp9ArECJoNlle-54">
          <mxGeometry relative="1" as="geometry" />
        </mxCell>
        <mxCell id="q5akOOhBp9ArECJoNlle-95" value="&lt;font style=&quot;font-size: 30px;&quot;&gt;«adapter»&lt;/font&gt;&lt;div style=&quot;font-size: 30px;&quot;&gt;&lt;br&gt;&lt;/div&gt;&lt;div style=&quot;font-size: 30px;&quot;&gt;Calibration&lt;/div&gt;" style="html=1;dropTarget=0;whiteSpace=wrap;" vertex="1" parent="1">
          <mxGeometry x="2340" y="-710" width="320" height="120" as="geometry" />
        </mxCell>
        <mxCell id="q5akOOhBp9ArECJoNlle-96" value="" style="shape=module;jettyWidth=8;jettyHeight=4;" vertex="1" parent="q5akOOhBp9ArECJoNlle-95">
          <mxGeometry x="1" width="20" height="20" relative="1" as="geometry">
            <mxPoint x="-27" y="7" as="offset" />
          </mxGeometry>
        </mxCell>
      </root>
    </mxGraphModel>
  </diagram>
</mxfile>
